Coordinates
version=1
nRows=7
nColumns=40
inDegrees=yes

Units are S.I. units (second, meters, Newtons, ...)
Angles are in degrees.

endheader
time	pelvis_tilt	pelvis_list	pelvis_rotation	pelvis_tx	pelvis_ty	pelvis_tz	hip_flexion_r	hip_adduction_r	hip_rotation_r	knee_angle_r	knee_angle_r_beta	ankle_angle_r	subtalar_angle_r	mtp_angle_r	hip_flexion_l	hip_adduction_l	hip_rotation_l	knee_angle_l	knee_angle_l_beta	ankle_angle_l	subtalar_angle_l	mtp_angle_l	lumbar_extension	lumbar_bending	lumbar_rotation	arm_flex_r	arm_add_r	arm_rot_r	elbow_flex_r	pro_sup_r	wrist_flex_r	wrist_dev_r	arm_flex_l	arm_add_l	arm_rot_l	elbow_flex_l	pro_sup_l	wrist_flex_l	wrist_dev_l
     42.61142857	    -11.70992817	     -7.93666960	     -1.05650634	      0.96639290	      0.90389611	      0.46823930	      5.89347843	      4.23972644	    -13.56209163	     12.36789633	     12.36789633	     18.72127692	      3.75297438	     -0.69571434	     39.96908867	     -9.73959642	      3.87733266	     27.34268540	     27.34268540	      5.77748159	    -12.83107502	      8.66226754	     -8.92870995	      4.90356530	      4.53736756	     54.23264697	    -11.74371107	     -2.74507814	    120.42914165	     43.88440596	      0.00000000	      0.00000000	    -18.17259886	     -6.09981527	     10.93445096	     31.60390949	     44.36863873	      0.00000000	      0.00000000
     42.62285714	    -11.61232078	     -7.81652430	     -1.17322705	      0.96829610	      0.90316447	      0.46512854	      5.56512010	      3.76391313	    -13.26084716	     13.25634412	     13.25634412	     19.04858067	      3.45779012	     -0.88185028	     39.62533613	     -9.54011864	      3.48188074	     28.05563794	     28.05563794	      5.86872112	    -13.09438862	      8.22988605	     -8.79112080	      4.88612356	      4.19825832	     54.72760562	    -11.19123838	     -2.62198196	    121.80083857	     43.85019743	      0.00000000	      0.00000000	    -18.34614768	     -5.88624139	     11.03580919	     31.42336688	     44.36600252	      0.00000000	      0.00000000
     42.63428571	    -11.57898127	     -7.64394595	     -1.31248300	      0.96995798	      0.90275991	      0.46191863	      5.52151819	      3.18585678	    -12.88668721	     14.48922411	     14.48922411	     19.22589677	      2.94685705	     -1.13883505	     39.36420173	     -9.30042780	      3.07297553	     28.96105725	     28.96105725	      6.01805878	    -13.40845684	      7.57175997	     -8.64501827	      4.79854312	      4.02156379	     54.66157331	    -10.95201266	     -2.59139216	    123.68086661	     43.80758461	      0.00000000	      0.00000000	    -18.23683517	     -5.72819412	     11.09202370	     31.19851176	     44.38203485	      0.00000000	      0.00000000
     42.64571429	    -11.49202327	     -7.48129458	     -1.42401203	      0.97136015	      0.90281346	      0.45859778	      5.64493396	      2.56127616	    -12.56888529	     16.08386063	     16.08386063	     19.22001730	      2.36619611	     -1.53746737	     39.03763659	     -9.04178929	      2.78138245	     29.93201912	     29.93201912	      6.38399739	    -13.69789945	      7.06086785	     -8.60836991	      4.73035516	      3.88789075	     54.45303705	    -10.82305099	     -2.58134748	    125.32880101	     43.76817233	      0.00000000	      0.00000000	    -17.82597156	     -5.57043867	     11.14503397	     31.00033020	     44.39782620	      0.00000000	      0.00000000
     42.65714286	    -11.41234265	     -7.30676756	     -1.56947511	      0.97255716	      0.90330658	      0.45524358	      5.99018289	      1.88028586	    -12.22442025	     18.00838101	     18.00838101	     18.97865376	      1.70794433	     -2.08621515	     38.61672359	     -8.78048245	      2.49619208	     30.77656274	     30.77656274	      6.90432962	    -13.90294151	      6.70558516	     -8.61391380	      4.63920291	      3.83121332	     53.85116890	    -10.84911621	     -2.56624077	    126.95036042	     43.72710322	      0.00000000	      0.00000000	    -17.20968787	     -5.49446520	     11.19392222	     30.74831283	     44.41657151	      0.00000000	      0.00000000
     42.66857143	    -11.16355046	     -7.24226996	     -1.68241815	      0.97376037	      0.90447120	      0.45187584	      6.19149960	      1.30347513	    -12.00342898	     19.96056695	     19.96056695	     18.52059563	      1.14880033	     -2.53184813	     37.91185671	     -8.59674130	      2.30726897	     31.44514835	     31.44514835	      7.56893480	    -14.09318258	      6.43767040	     -8.81103453	      4.67574710	      3.67854637	     52.98046226	    -10.82864833	     -2.47941836	    127.89591495	     43.69707166	      0.00000000	      0.00000000	    -16.47818936	     -5.45221546	     11.22489134	     30.67360909	     44.43174564	      0.00000000	      0.00000000
     42.68000000	    -11.27675519	     -7.01246175	     -1.90355948	      0.97441667	      0.90548448	      0.44867514	      7.18689625	      0.53705703	    -11.55734355	     22.46640627	     22.46640627	     17.18680658	     -0.18473802	     -5.11510186	     37.46444061	     -8.32605246	      1.90579871	     31.84461588	     31.84461588	      8.59341623	    -13.88116371	      7.26382855	     -8.70216510	      4.50290634	      4.56189532	     51.36809556	    -11.97807065	     -3.18709410	    130.85278112	     43.68259600	      0.00000000	      0.00000000	    -14.52362929	     -5.39286705	     11.89456941	     28.92704719	     44.45820605	      0.00000000	      0.00000000
